<svg width="21" height="21" viewBox="0 0 21 21" fill="none" xmlns="http://www.w3.org/2000/svg">
<g clip-path="url(#clip0_1_23)">
<path d="M19.7356 11.9542L18.0731 5.97272C17.5858 4.22039 16.5268 2.68122 15.0643 1.59988C13.6018 0.518544 11.8199 -0.0429136 10.0017 0.00475648C8.18345 0.0524266 6.43336 0.706489 5.02956 1.86298C3.62575 3.01947 2.6488 4.61201 2.254 6.38747L0.966874 12.1756C0.8247 12.8152 0.827987 13.4785 0.976493 14.1166C1.125 14.7548 1.41493 15.3514 1.82488 15.8625C2.23484 16.3735 2.75434 16.786 3.34505 17.0694C3.93575 17.3529 4.58257 17.5 5.23775 17.5H6.2125C6.41332 18.489 6.94989 19.3781 7.73127 20.0168C8.51266 20.6555 9.49081 21.0044 10.5 21.0044C11.5092 21.0044 12.4873 20.6555 13.2687 20.0168C14.0501 19.3781 14.5867 18.489 14.7875 17.5H15.5207C16.1952 17.5 16.8605 17.3441 17.4648 17.0445C18.069 16.7448 18.5958 16.3095 19.004 15.7726C19.4121 15.2357 19.6906 14.6116 19.8177 13.9493C19.9448 13.2869 19.9161 12.6041 19.7356 11.9542ZM10.5 19.25C9.95902 19.2477 9.43195 19.0784 8.99089 18.7651C8.54983 18.4519 8.21632 18.01 8.036 17.5H12.964C12.7837 18.01 12.4502 18.4519 12.0091 18.7651C11.5681 19.0784 11.041 19.2477 10.5 19.25ZM17.6102 14.7131C17.3664 15.0366 17.0505 15.2987 16.6877 15.4787C16.3248 15.6587 15.9249 15.7516 15.5199 15.75H5.23775C4.84469 15.7499 4.45666 15.6616 4.1023 15.4915C3.74794 15.3214 3.4363 15.0739 3.19039 14.7673C2.94448 14.4606 2.77057 14.1027 2.68149 13.7198C2.59242 13.337 2.59045 12.939 2.67575 12.5553L3.962 6.76635C4.27206 5.37178 5.03939 4.12088 6.14202 3.21249C7.24465 2.30411 8.6193 1.79037 10.0474 1.75296C11.4756 1.71555 12.8752 2.1566 14.0239 3.00601C15.1726 3.85542 16.0043 5.06443 16.387 6.44085L18.0495 12.4223C18.1594 12.812 18.1768 13.222 18.1006 13.6196C18.0244 14.0173 17.8565 14.3917 17.6102 14.7131Z" fill="#A9A9A9"/>
</g>
<defs>
<clipPath id="clip0_1_23">
<rect width="21" height="21" fill="white"/>
</clipPath>
</defs>
</svg>
